<svg width="580" height="400" xmlns="http://www.w3.org/2000/svg">
 <!-- Created with SVG Editor - http://github.com/mzalive/SVG Editor/ -->

 <g>
  <title>background</title>
  <rect fill="none" id="canvas_background" height="402" width="582" y="-1" x="-1"/>
  <g display="none" overflow="visible" y="0" x="0" height="100%" width="100%" id="canvasGrid">
   <rect fill="url(#gridpattern)" stroke-width="0" y="0" x="0" height="100%" width="100%"/>
  </g>
 </g>
 <g>
  <title>Layer 1</title>
  <!-- Created with SVG Editor - http://github.com/mzalive/SVG Editor/ -->
  <defs>
   <filter id="svg_34" x="-50%" y="-50%" width="200%" height="200%">
    <feGaussianBlur stdDeviation="1"/>
   </filter>
  </defs>
  <g stroke="null" id="svg_67">
   <g stroke="null" transform="matrix(0.43693767940181993,0,0,0.3905792956047607,-11006.962955583258,-6721.306953181129) " id="svg_64">
    <title stroke-width="20" stroke="null" transform="translate(2.288655996322632,3.637978807091713e-12) translate(-6.865967750549316,10.241198539733887) translate(6.865967750549316,3.637978807091713e-12) translate(-2.288655996322632,3.637978807091713e-12) translate(-2.288655996322632,3.637978807091713e-12) translate(2.288655996322632,17.922096252441406) translate(9.158602714538574,0) translate(3.637978807091713e-12,-2.5555315017700195) translate(-2.2896506786346436,0) translate(-2.2896506786346436,0) translate(-4.579301357269287,0) translate(2.2896506786346436,0) translate(2.2896506786346436,0) translate(-32.055110931396484,33.22190856933594) translate(-217.51681518554688,-212.10910034179688) translate(-633.1641845703125,-564.887451171875) translate(26123.41015625,0) translate(0,17952.001953125) ">background</title>
    <rect stroke-width="20" stroke="null" x="25244.253347" y="17232.835073" width="1282" height="962" id="svg_62" fill="none"/>
    <g stroke="null" id="svg_61" display="none">
     <rect stroke="null" id="svg_65" width="580" height="400" x="25245.253347" y="17233.835073" stroke-width="20" fill="url(#gridpattern)"/>
    </g>
   </g>
   <g stroke="null" transform="matrix(0.43693767940181993,0,0,0.3905792956047607,-11006.962955583258,-6721.306953181129) " id="svg_66">
    <title stroke-width="20" stroke="null" transform="translate(2.288655996322632,3.637978807091713e-12) translate(-6.865967750549316,10.241198539733887) translate(6.865967750549316,3.637978807091713e-12) translate(-2.288655996322632,3.637978807091713e-12) translate(-2.288655996322632,3.637978807091713e-12) translate(2.288655996322632,17.922096252441406) translate(9.158602714538574,0) translate(3.637978807091713e-12,-2.5555315017700195) translate(-2.2896506786346436,0) translate(-2.2896506786346436,0) translate(-4.579301357269287,0) translate(2.2896506786346436,0) translate(2.2896506786346436,0) translate(2.2896506786346436,0) translate(-32.055110931396484,33.22190856933594) translate(-217.51681518554688,-212.10910034179688) translate(-633.1641845703125,-564.887451171875) translate(26123.41015625,0) translate(0,17952.001953125) ">Layer 1</title>
    <g stroke="null" id="svg_33" filter="url(#svg_34)">
     <line stroke="#ffffff" fill="#ffffff" stroke-width="20" x1="25395.343651" y1="17563.952731" x2="25397.335455" y2="17863.839095" id="svg_60" stroke-linejoin="undefined" stroke-linecap="undefined"/>
     <path stroke="#ffffff" fill="#ffffff" d="m25387.306788,17836.142353l9.95894,-34.89348l9.95897,34.89348l-19.91791,0z" id="svg_59" stroke-width="20"/>
     <path stroke="#ffffff" fill="#ffffff" d="m25403.596218,17589.000533l-9.95894,34.89348l-9.95897,-34.89348l19.91791,0z" id="svg_58" stroke-width="20"/>
     <path stroke="#ffffff" fill="#ffffff" d="m25392.328308,17915.767403l25.36724,26.66314l-33.46858,-4.80478l8.10134,-21.85836z" id="svg_57" stroke-width="20"/>
     <g stroke="null" id="svg_38">
      <line stroke="#ffffff" fill="#ffffff" stroke-width="20" x1="26365.036377" y1="17393.812896" x2="26367.028181" y2="17566.088098" id="svg_56" stroke-linejoin="undefined" stroke-linecap="undefined"/>
      <line stroke="#ffffff" fill="#ffffff" stroke-width="20" stroke-opacity="null" x1="26015.647449" y1="17274.130676" x2="26364.213064" y2="17393.766233" id="svg_55" stroke-linejoin="undefined" stroke-linecap="undefined"/>
      <line stroke="#ffffff" fill="#ffffff" stroke-width="20" x1="26017.294095" y1="17277.743079" x2="26019.285899" y2="17450.018281" id="svg_54" stroke-linejoin="undefined" stroke-linecap="undefined"/>
      <line stroke="#ffffff" fill="#ffffff" stroke-width="20" stroke-opacity="null" x1="26015.647449" y1="17274.130676" x2="26364.213064" y2="17393.766233" id="svg_53" stroke-linejoin="undefined" stroke-linecap="undefined"/>
      <line stroke="#ffffff" fill="#ffffff" stroke-width="20" stroke-opacity="null" x1="25336.442908" y1="17910.392662" x2="25922.031547" y2="18143.48197" id="svg_52" stroke-linejoin="undefined" stroke-linecap="undefined"/>
      <path stroke="#ffffff" fill="#ffffff" stroke-opacity="null" d="m25779.665608,18101.517883l-29.02892,-26.99218l36.4903,4.80749l-7.46138,22.18469z" id="svg_51" stroke-width="20"/>
      <path stroke="#ffffff" fill="#ffffff" stroke-opacity="null" d="m26013.245138,17982.296813l-34.6548,14.54497l23.23036,-34.14478l11.42444,19.59981z" id="svg_50" stroke-width="20"/>
      <path stroke="#ffffff" fill="#ffffff" d="m26422.419458,17615.704573l34.43822,-15.26929l-22.73077,34.6266l-11.70745,-19.35731z" id="svg_49" stroke-width="20"/>
      <line stroke="#ffffff" fill="#ffffff" stroke-width="20" x1="25533.631002" y1="17678.498867" x2="25535.622805" y2="17850.77407" id="svg_48" stroke-linejoin="undefined" stroke-linecap="undefined"/>
      <line stroke="#ffffff" fill="#ffffff" stroke-width="20" x1="25878.213008" y1="17798.13442" x2="25880.204811" y2="17970.409623" id="svg_47" stroke-linejoin="undefined" stroke-linecap="undefined"/>
      <line stroke="#ffffff" fill="#ffffff" stroke-width="20" stroke-opacity="null" x1="25394.204767" y1="17628.251935" x2="25882.196619" y2="17802.919853" id="svg_46" stroke-linejoin="undefined" stroke-linecap="undefined"/>
      <line stroke="#ffffff" fill="#ffffff" stroke-width="20" stroke-opacity="null" x1="25393.540813" y1="17796.938058" x2="26021.954918" y2="18014.674847" id="svg_45" stroke-linejoin="undefined" stroke-linecap="undefined"/>
      <line stroke="#ffffff" fill="#ffffff" stroke-width="20" stroke-opacity="null" x1="25748.247779" y1="18077.284024" x2="26369.02659" y2="17568.035369" id="svg_44" stroke-linejoin="undefined" stroke-linecap="undefined"/>
      <line stroke="#ffffff" fill="#ffffff" stroke-width="20" stroke-opacity="null" x1="25535.622731" y1="17680.891586" x2="26017.639238" y2="17274.130672" id="svg_43" stroke-linejoin="undefined" stroke-linecap="undefined"/>
      <line stroke="#ffffff" fill="#ffffff" stroke-width="20" stroke-opacity="null" x1="25879.381483" y1="17799.307453" x2="26365.381561" y2="17397.331979" id="svg_42" stroke-linejoin="undefined" stroke-linecap="undefined"/>
      <line stroke="#ffffff" fill="#ffffff" stroke-width="20" stroke-opacity="null" x1="25419.274841" y1="17945.309463" x2="26020.799517" y2="17447.625549" id="svg_41" stroke-linejoin="undefined" stroke-linecap="undefined"/>
      <line stroke="#ffffff" fill="#ffffff" stroke-width="20" stroke-opacity="null" x1="26014.478991" y1="17449.971626" x2="26492.511855" y2="17607.890588" id="svg_40" stroke-linejoin="undefined" stroke-linecap="undefined"/>
      <line stroke="#ffffff" fill="#ffffff" stroke-width="20" stroke-opacity="null" x1="25977.612544" y1="17998.524469" x2="26459.795926" y2="17598.941008" id="svg_39" stroke-linejoin="undefined" stroke-linecap="undefined"/>
     </g>
     <text stroke="#000" xml:space="preserve" text-anchor="start" font-family="Arvo, sans-serif" font-size="57" id="svg_68" y="411.607763" x="189.079301" stroke-width="20" fill="#ffffff">98</text>
    </g>
   </g>
  </g>
  <text font-style="normal" stroke="#ffffff" transform="matrix(0.2737630290957251,0,0,0.26823723317413084,159.43744684772355,-55.175579731678496) " font-weight="normal" xml:space="preserve" text-anchor="start" font-family="Arvo, sans-serif" font-size="250" id="svg_69" y="1610.576044" x="-231.676518" stroke-width="8" fill="#ffffff">98</text>
  <text font-style="normal" stroke="#ffffff" transform="matrix(0.2737630290957251,0,0,0.26823723317413084,159.43744684772355,-55.175579731678496) " font-weight="normal" xml:space="preserve" text-anchor="start" font-family="Arvo, sans-serif" font-size="250" id="svg_70" y="1293.69237" x="1021.231886" stroke-width="8" fill="#ffffff">198</text>
  <text font-style="normal" stroke="#ffffff" transform="matrix(0.2737630290957251,0,0,0.26823723317413084,159.43744684772355,-55.175579731678496) " font-weight="normal" xml:space="preserve" text-anchor="start" font-family="Arvo, sans-serif" font-size="250" id="svg_71" y="1040.185431" x="-589.650348" stroke-width="8" fill="#ffffff">70</text>
 </g>
</svg>