<svg width="1280" height="960" xmlns="http://www.w3.org/2000/svg">
 <!-- Created with SVG Editor - http://github.com/mzalive/SVG Editor/ -->
 <defs>
  <filter height="200%" width="200%" y="-50%" x="-50%" id="svg_66_blur">
   <feGaussianBlur stdDeviation="1" in="SourceGraphic"/>
  </filter>
 </defs>
 <g>
  <title>background</title>
  <rect fill="none" id="canvas_background" height="962" width="1282" y="-1" x="-1"/>
  <g display="none" overflow="visible" y="0" x="0" height="100%" width="100%" id="canvasGrid">
   <rect fill="url(#gridpattern)" stroke-width="0" y="0" x="0" height="100%" width="100%"/>
  </g>
 </g>
 <g>
  <title>Layer 1</title>
  <g filter="url(#svg_66_blur)" stroke="null" id="svg_66">
   <line stroke="#ffffff" stroke-linecap="undefined" stroke-linejoin="undefined" id="svg_39" y2="627.004022" x2="145.792457" y1="327.117658" x1="143.800653" stroke-width="8" fill="#ffffff"/>
   <path stroke="#ffffff" stroke-width="8" id="svg_53" d="m135.763792,599.307285l9.958938,-34.893486l9.958969,34.893486l-19.917906,0z" fill="#ffffff"/>
   <path stroke="#ffffff" stroke-width="8" id="svg_54" d="m152.053219,352.165458l-9.958939,34.89348l-9.958969,-34.89348l19.917907,0z" fill="#ffffff"/>
   <path stroke="#ffffff" stroke-width="8" id="svg_55" d="m140.785312,678.932326l25.367241,26.663149l-33.468584,-4.804785l8.101343,-21.858364z" fill="#ffffff"/>
   <g stroke="null" id="svg_67">
    <line stroke="#ffffff" stroke-linecap="undefined" stroke-linejoin="undefined" id="svg_3" y2="329.253025" x2="1115.485183" y1="156.977823" x1="1113.493379" stroke-width="8" fill="#ffffff"/>
    <line stroke="#ffffff" stroke-linecap="undefined" stroke-linejoin="undefined" id="svg_11" y2="156.93116" x2="1112.670066" y1="37.295603" x1="764.104451" stroke-opacity="null" stroke-width="8" fill="#ffffff"/>
    <line stroke="#ffffff" stroke-linecap="undefined" stroke-linejoin="undefined" id="svg_29" y2="213.183208" x2="767.742901" y1="40.908006" x1="765.751097" stroke-width="8" fill="#ffffff"/>
    <line stroke="#ffffff" stroke-linecap="undefined" stroke-linejoin="undefined" id="svg_33" y2="156.93116" x2="1112.670066" y1="37.295603" x1="764.104451" stroke-opacity="null" stroke-width="8" fill="#ffffff"/>
    <line stroke="#ffffff" stroke-linecap="undefined" stroke-linejoin="undefined" id="svg_38" y2="906.646897" x2="670.488549" y1="673.557589" x1="84.89991" stroke-opacity="null" stroke-width="8" fill="#ffffff"/>
    <path stroke="#ffffff" stroke-width="8" id="svg_56" d="m528.122612,864.682811l-29.02892,-26.992178l36.490299,4.807489l-7.461379,22.184689z" stroke-opacity="null" fill="#ffffff"/>
    <path stroke="#ffffff" stroke-width="8" id="svg_59" d="m761.702142,745.461744l-34.654805,14.544963l23.230363,-34.144779l11.424442,19.599816z" stroke-opacity="null" fill="#ffffff"/>
    <path stroke="#ffffff" stroke-width="8" id="svg_60" d="m1170.876461,378.869498l34.438215,-15.269293l-22.730763,34.626608l-11.707452,-19.357316z" fill="#ffffff"/>
    <line stroke="#ffffff" stroke-linecap="undefined" stroke-linejoin="undefined" id="svg_2" y2="613.938997" x2="284.079807" y1="441.663794" x1="282.088004" stroke-width="8" fill="#ffffff"/>
    <line stroke="#ffffff" stroke-linecap="undefined" stroke-linejoin="undefined" id="svg_6" y2="733.57455" x2="628.661813" y1="561.299347" x1="626.67001" stroke-width="8" fill="#ffffff"/>
    <line stroke="#ffffff" stroke-linecap="undefined" stroke-linejoin="undefined" id="svg_8" y2="566.08478" x2="630.653621" y1="391.416862" x1="142.661769" stroke-opacity="null" stroke-width="8" fill="#ffffff"/>
    <line stroke="#ffffff" stroke-linecap="undefined" stroke-linejoin="undefined" id="svg_9" y2="777.839774" x2="770.41192" y1="560.102985" x1="141.997815" stroke-opacity="null" stroke-width="8" fill="#ffffff"/>
    <line stroke="#ffffff" stroke-linecap="undefined" stroke-linejoin="undefined" id="svg_13" y2="331.200296" x2="1117.483592" y1="840.448951" x1="496.704781" stroke-opacity="null" stroke-width="8" fill="#ffffff"/>
    <line stroke="#ffffff" stroke-linecap="undefined" stroke-linejoin="undefined" id="svg_15" y2="37.295599" x2="766.09624" y1="444.056513" x1="284.079733" stroke-opacity="null" stroke-width="8" fill="#ffffff"/>
    <line stroke="#ffffff" stroke-linecap="undefined" stroke-linejoin="undefined" id="svg_28" y2="160.496906" x2="1113.838563" y1="562.47238" x1="627.838485" stroke-opacity="null" stroke-width="8" fill="#ffffff"/>
    <line stroke="#ffffff" stroke-linecap="undefined" stroke-linejoin="undefined" id="svg_32" y2="210.790476" x2="769.256519" y1="708.47439" x1="167.731843" stroke-opacity="null" stroke-width="8" fill="#ffffff"/>
    <line stroke="#ffffff" stroke-linecap="undefined" stroke-linejoin="undefined" id="svg_35" y2="371.055515" x2="1240.968857" y1="213.136553" x1="762.935993" stroke-opacity="null" stroke-width="8" fill="#ffffff"/>
    <line stroke="#ffffff" stroke-linecap="undefined" stroke-linejoin="undefined" id="svg_58" y2="362.105935" x2="1208.252928" y1="761.689396" x1="726.069546" stroke-opacity="null" stroke-width="8" fill="#ffffff"/>
   </g>
   <text stroke="#ffffff" transform="matrix(1.6398104075589468,0,0,1.5861054464282855,-25.542437773452207,-8.671885112943503) " xml:space="preserve" text-anchor="start" font-family="Arvo, sans-serif" font-size="57" id="svg_68" y="536.017599" x="146.587065" stroke-width="8" fill="#ffffff">98</text>
   <text stroke="#ffffff" transform="matrix(1.6398104075589468,0,0,1.5861054464282855,-25.542437773452207,-8.671885112943503) " xml:space="preserve" text-anchor="start" font-family="Arvo, sans-serif" font-size="57" id="svg_72" y="319.976093" x="26.971159" stroke-width="8" fill="#ffffff">70</text>
   <text stroke="#ffffff" transform="matrix(1.6398104075589468,0,0,1.5861054464282855,-25.542437773452207,-8.671885112943503) " xml:space="preserve" text-anchor="start" font-family="Arvo, sans-serif" font-size="57" id="svg_73" y="399.90623" x="617.421298" stroke-width="8" fill="#ffffff">198</text>
  </g>
 </g>
</svg>