<?xml version="1.0" standalone="no"?>
<!DOCTYPE svg PUBLIC "-//W3C//DTD SVG 20010904//EN"
 "http://www.w3.org/TR/2001/REC-SVG-20010904/DTD/svg10.dtd">
<svg version="1.0" xmlns="http://www.w3.org/2000/svg"
 width="260.000000pt" height="260.000000pt" viewBox="0 0 260.000000 260.000000"
 preserveAspectRatio="xMidYMid meet">
<metadata>
Created by potrace 1.11, written by Peter Selinger 2001-2013
</metadata>
<g transform="translate(0.000000,260.000000) scale(0.100000,-0.100000)"
fill="#000000" stroke="none">
<path d="M650 2520 l0 -80 -80 0 -80 0 0 -85 0 -85 -80 0 -80 0 0 -80 0 -80
-85 0 -85 0 0 -160 0 -160 -80 0 -80 0 0 -895 0 -895 165 0 165 0 0 570 0 570
325 0 325 0 0 -325 0 -325 325 0 325 0 0 -245 0 -245 160 0 160 0 0 245 0 245
325 0 325 0 0 485 0 485 -570 0 -570 0 0 165 0 165 -80 0 -80 0 0 160 0 160
-80 0 -80 0 0 80 0 80 -80 0 -80 0 0 85 0 85 -85 0 -85 0 0 80 0 80 -80 0 -80
0 0 -80z m160 -490 l0 -80 85 0 85 0 0 -165 0 -165 80 0 80 0 0 -80 0 -80
-405 0 -405 0 0 80 0 80 80 0 80 0 0 165 0 165 80 0 80 0 0 80 0 80 80 0 80 0
0 -80z m820 -1055 l0 -165 -165 0 -165 0 0 165 0 165 165 0 165 0 0 -165z
m650 0 l0 -165 -165 0 -165 0 0 165 0 165 165 0 165 0 0 -165z"/>
<path d="M980 160 l0 -160 160 0 160 0 0 160 0 160 -160 0 -160 0 0 -160z"/>
<path d="M2280 160 l0 -160 160 0 160 0 0 160 0 160 -160 0 -160 0 0 -160z"/>
</g>
</svg>
