<svg width="149" height="111" xmlns="http://www.w3.org/2000/svg" style="vector-effect: non-scaling-stroke;" stroke="null">
 <!-- Created with SVG Editor - http://github.com/mzalive/SVG Editor/ -->

 <g stroke="null">
  <title stroke="null">background</title>
  <rect stroke="null" fill="none" id="canvas_background" height="113" width="151" y="-1" x="-1"/>
  <g style="vector-effect: non-scaling-stroke;" stroke="null" display="none" overflow="visible" y="0" x="0" height="100%" width="100%" id="canvasGrid">
   <rect fill="url(#gridpattern)" stroke-width="0" y="0" x="0" height="100%" width="100%"/>
  </g>
 </g>
 <g stroke="null">
  <title stroke="null">Layer 1</title>
  <!-- Created with SVG Editor - http://github.com/mzalive/SVG Editor/ -->
  <g transform="rotate(-179 80.04878234863283,74.31442260742188) " stroke="null" id="svg_31">
   <g stroke="null" transform="matrix(14.623419433746784,0,0,13.484403613790127,-51.639806627460686,-56.37090532394416) " id="svg_28">
    <title stroke="null" transform="translate(0.8206015229225159,2.743910789489746) translate(-0.06838345527648926,0) translate(0.06838345527648926,0) translate(0,-0.07415974885225296) translate(0,0.07415974885225296) translate(-0.06838345527648926,0) translate(0.06838345527648926,0) translate(-0.06838345527648926,0) translate(-0.41030076146125793,-0.5191182494163513) translate(-0.34989291429519653,-0.15426857769489288) translate(-0.2841319739818573,0.07809814065694809) translate(0.35516494512557983,0.7809814214706421) translate(0.9436797499656677,1.705674409866333) translate(-6.927593231201172,-0.06559784710407257) translate(0.8360888361930847,1.3119570016860962) translate(2.186295747756958,-4.4300055503845215) translate(0.1210901215672493,0.0929177924990654) translate(-6.458139896392822,-4.274218559265137) translate(6.902137279510498,6.597163677215576) translate(-4.3376054763793945,-4.987152099609375) translate(0.17631039023399353,0) translate(0,-0.6887503862380981) ">background</title>
    <rect stroke="null" x="-7.494679" y="-2.808408" width="33" height="25" id="svg_26" fill="none"/>
    <g stroke="null" id="svg_25" display="none">
     <rect stroke="null" id="svg_29" width="580" height="400" x="-6.494679" y="-1.808408" stroke-width="0" fill="url(#gridpattern)"/>
    </g>
   </g>
   <g stroke="null" transform="matrix(14.623419433746784,0,0,13.484403613790127,-51.639806627460686,-56.37090532394416) " id="svg_30">
    <title stroke="null" transform="translate(0.8206015229225159,2.743910789489746) translate(-0.06838345527648926,0) translate(0.06838345527648926,0) translate(0,-0.07415974885225296) translate(0,0.07415974885225296) translate(-0.06838345527648926,0) translate(0.06838345527648926,0) translate(-0.06838345527648926,0) translate(-0.41030076146125793,-0.5191182494163513) translate(-0.34989291429519653,-0.15426857769489288) translate(-0.2841319739818573,0.07809814065694809) translate(0.35516494512557983,0.7809814214706421) translate(0.9436797499656677,1.705674409866333) translate(-6.927593231201172,-0.06559784710407257) translate(0.8360888361930847,1.3119570016860962) translate(2.186295747756958,-4.4300055503845215) translate(0.1210901215672493,0.0929177924990654) translate(-6.458139896392822,-4.274218559265137) translate(6.902137279510498,6.597163677215576) translate(-4.3376054763793945,-4.987152099609375) translate(0.17631039023399353,0) translate(0,-0.6887503862380981) ">Layer 1</title>
    <!-- Created with SVG Editor - http://github.com/mzalive/SVG Editor/ -->
    <g stroke="null" id="svg_15">
     <g stroke="null" id="svg_21" transform="matrix(0.05284713925482465,0,0,0.05736997967085783,0,0.015561724199159244) ">
      <title stroke="null" transform="translate(15.52783203125,47.828338623046875) translate(-1.2939859628677368,0) translate(1.2939859628677368,0) translate(0,-1.292657732963562) translate(0,1.292657732963562) translate(-1.2939859628677368,0) translate(1.2939859628677368,0) translate(-1.2939859628677368,0) translate(-7.763916015625,-9.048604011535645) translate(-6.620848655700684,-2.689012289047241) translate(-5.3764872550964355,1.3613067865371704) translate(6.720608711242676,13.613067626953125) translate(17.856781005859375,29.731130599975586) translate(-131.08738708496094,-1.1434175968170166) translate(15.820891380310059,22.86835479736328) translate(41.370182037353516,-77.21818542480469) translate(2.291327953338623,1.6196238994598389) translate(-122.20415496826172,-74.50270080566406) translate(130.60569763183594,114.9933090209961) translate(-82.07833862304688,-86.92964935302734) translate(3.336233377456665,0) translate(0,-12.005414962768555) ">background</title>
      <rect stroke="null" fill="none" id="svg_24" height="402" width="582" y="-34.96255" x="-122.895564"/>
      <g stroke="null" display="none" id="svg_22">
       <rect stroke="null" fill="url(#gridpattern)" stroke-width="0" y="-33.96255" x="-121.895564" height="400" width="580" id="svg_23"/>
      </g>
     </g>
     <g stroke="null" id="svg_16" transform="matrix(0.05284713925482465,0,0,0.05736997967085783,0,0.015561724199159244) ">
      <title stroke="null" transform="translate(15.52783203125,47.828338623046875) translate(-1.2939859628677368,0) translate(1.2939859628677368,0) translate(0,-1.292657732963562) translate(0,1.292657732963562) translate(-1.2939859628677368,0) translate(1.2939859628677368,0) translate(-1.2939859628677368,0) translate(-7.763916015625,-9.048604011535645) translate(-6.620848655700684,-2.689012289047241) translate(-5.3764872550964355,1.3613067865371704) translate(6.720608711242676,13.613067626953125) translate(17.856781005859375,29.731130599975586) translate(-131.08738708496094,-1.1434175968170166) translate(15.820891380310059,22.86835479736328) translate(41.370182037353516,-77.21818542480469) translate(2.291327953338623,1.6196238994598389) translate(-122.20415496826172,-74.50270080566406) translate(130.60569763183594,114.9933090209961) translate(-82.07833862304688,-86.92964935302734) translate(3.336233377456665,0) translate(0,-12.005414962768555) ">Layer 1</title>
      <line stroke="#e73d18" transform="rotate(3 138.1043853759773,166.0374450683594) " stroke-linecap="undefined" stroke-linejoin="undefined" id="svg_20" y2="196.03745" x2="186.854436" y1="136.03745" x1="89.354436" stroke-width="22.5" fill="none"/>
      <line stroke="#e73d18" transform="rotate(-70 218.10441589355466,164.03744506835935) " stroke-linecap="undefined" stroke-linejoin="undefined" id="svg_19" y2="194.03745" x2="266.854436" y1="134.03745" x1="169.354436" stroke-width="22.5" fill="none"/>
      <line stroke="#e73d18" transform="rotate(3 139.10438537597835,221.03742980957009) " stroke-linecap="undefined" stroke-linejoin="undefined" id="svg_18" y2="251.03745" x2="187.854436" y1="191.03745" x1="90.354436" stroke-width="22.5" fill="none"/>
      <line stroke="#e73d18" transform="rotate(-70 219.10441589355474,219.0374298095703) " stroke-linecap="undefined" stroke-linejoin="undefined" id="svg_17" y2="249.03745" x2="267.854436" y1="189.03745" x1="170.354436" stroke-width="22.5" fill="none"/>
     </g>
    </g>
   </g>
  </g>
 </g>
</svg>